HIERARCHY
ROOT Hips
{
  OFFSET 90.7885 88.945 -76.2838
  CHANNELS 6 Xposition Yposition Zposition Zrotation Xrotation Yrotation
  JOINT LeftUpLeg
  {
    OFFSET 8.64259 1.95398 -2.38835
    CHANNELS 3 Zrotation Xrotation Yrotation
    JOINT LeftLeg
    {
      OFFSET 43.7702 0 0
      CHANNELS 3 Zrotation Xrotation Yrotation
      JOINT LeftFoot
      {
        OFFSET 40.6238 0 0
        CHANNELS 3 Zrotation Xrotation Yrotation
        JOINT LeftToeBase
        {
          OFFSET 12.7242 0 0
          CHANNELS 3 Zrotation Xrotation Yrotation
          End Site
          {
            OFFSET 0 0 0
          }
        }
      }
    }
  }
  JOINT RightUpLeg
  {
    OFFSET -8.2249 1.95398 -2.59336
    CHANNELS 3 Zrotation Xrotation Yrotation
    JOINT RightLeg
    {
      OFFSET 43.5653 0 0
      CHANNELS 3 Zrotation Xrotation Yrotation
      JOINT RightFoot
      {
        OFFSET 40.6238 0 0
        CHANNELS 3 Zrotation Xrotation Yrotation
        JOINT RightToeBase
        {
          OFFSET 12.7242 0 0
          CHANNELS 3 Zrotation Xrotation Yrotation
          End Site
          {
            OFFSET 0 0 0
          }
        }
      }
    }
  }
  JOINT Spine
  {
    OFFSET 0.165834 0.87714 6.61349
    CHANNELS 3 Zrotation Xrotation Yrotation
    JOINT Spine1
    {
      OFFSET 7.38963 1.71661e-005 0
      CHANNELS 3 Zrotation Xrotation Yrotation
      JOINT Spine2
      {
        OFFSET 11.9445 1.14441e-005 0
        CHANNELS 3 Zrotation Xrotation Yrotation
        JOINT Spine3
        {
          OFFSET 14.7254 4.19617e-005 0
          CHANNELS 3 Zrotation Xrotation Yrotation
          JOINT Spine4
          {
            OFFSET 10.9679 0 0
            CHANNELS 3 Zrotation Xrotation Yrotation
            JOINT RightShoulder
            {
              OFFSET 2.46616 -1.6653 3.69651
              CHANNELS 3 Zrotation Xrotation Yrotation
              JOINT RightArm
              {
                OFFSET 13.0012 0 0
                CHANNELS 3 Zrotation Xrotation Yrotation
                JOINT RightForeArm
                {
                  OFFSET 28.7848 1.52588e-005 0
                  CHANNELS 3 Zrotation Xrotation Yrotation
                  JOINT RightHand
                  {
                    OFFSET 26.5688 1.52588e-005 0
                    CHANNELS 3 Zrotation Xrotation Yrotation
                    End Site
                    {
                      OFFSET 0 0 0
                    }
                  }
                }
              }
            }
            JOINT LeftShoulder
            {
              OFFSET 2.38034 -1.29275 -3.7523
              CHANNELS 3 Zrotation Xrotation Yrotation
              JOINT LeftArm
              {
                OFFSET 16.3182 6.10352e-005 0
                CHANNELS 3 Zrotation Xrotation Yrotation
                JOINT LeftForeArm
                {
                  OFFSET 27.0901 0 0
                  CHANNELS 3 Zrotation Xrotation Yrotation
                  JOINT LeftHand
                  {
                    OFFSET 24.5451 1.52588e-005 0
                    CHANNELS 3 Zrotation Xrotation Yrotation
                    End Site
                    {
                      OFFSET 0 0 0
                    }
                  }
                }
              }
            }
            JOINT Neck
            {
              OFFSET 5.0226 -0.0266342 0
              CHANNELS 3 Zrotation Xrotation Yrotation
              JOINT Head
              {
                OFFSET 6.69363 2.86102e-005 0
                CHANNELS 3 Zrotation Xrotation Yrotation
                End Site
                {
                  OFFSET 0 0 0
                }
              }
            }
          }
        }
      }
    }
  }
}
MOTION
Frames:	10
Frame Time:	0.0416667
71.8194 98.5416 -42.4179 102.133 45.2213 84.3768 -176.595 -2.8781 88.7878 -25.9896 12.879 -0.661601 81.8997 8.52998 -2.53414 3.33754 -1.01439 4.45485 179.178 16.1252 92.4175 -29.1712 -12.6471 -3.73533 67.71 -5.28436 -2.94864 19.4438 -0.859784 3.51137 -0.361411 8.12072 -90.3629 10.6296 -0.886582 -0.640905 -1.04113 -0.913953 -0.601261 -23.5765 -0.653002 -0.877724 -3.56384 -0.652997 -0.87772 88.066 -31.208 -110.051 22.4881 -5.23055 -19.7986 11.8748 7.517 -49.5559 -13.6903 2.50776 -19.8292 -89.6979 -49.6795 79.1122 -23.7719 9.81192 -24.7035 -23.4501 -28.87 -55.2436 7.74456 -0.0158086 -3.52572 -1.93175 1.40872 -11.6585 -4.52343 2.72166 4.97389 
75.1434 98.2583 -45.5298 102.39 47.2912 83.8892 -175.656 -6.91364 89.9122 -23.7718 16.3353 -0.93849 83.9284 9.67724 -2.38369 5.39229 -2.799 5.99976 178.129 15.6304 93.2715 -15.5251 -15.2683 -2.57366 65.2427 -4.07398 -2.86312 20.6405 -1.04592 3.71044 -0.585393 8.18629 -90.3146 10.4985 -1.31039 -0.508543 -1.17181 -1.3315 -0.450366 -23.7102 -1.09698 -0.878885 -3.69753 -1.09697 -0.878889 88.4098 -31.4503 -109.289 22.702 -4.17871 -19.333 11.2458 7.62546 -50.2608 -13.806 2.31844 -18.3875 -89.7888 -49.1177 78.8559 -23.8455 10.8224 -26.4413 -21.6826 -27.829 -54.8534 -0.20563 -0.203773 -8.99263 -1.30557 1.10745 -13.3296 -4.31702 2.70409 5.21113 
78.7285 97.4692 -49.0762 102.726 47.8287 83.8349 -174.322 -11.2972 91.5175 -21.8302 18.1534 -1.53396 86.158 10.7248 -2.21696 4.13054 -1.85664 5.16966 176.521 15.9447 95.339 -7.72899 -11.4639 -0.750334 63.9457 -2.65532 -0.879864 24.0028 -0.60335 2.29432 -0.650453 8.24555 -90.2959 10.3801 -1.43128 -0.4628 -1.29009 -1.45027 -0.399356 -23.8295 -1.22601 -0.871606 -3.81686 -1.22602 -0.871619 88.5307 -31.6451 -108.977 22.9601 -3.46754 -19.2115 11.8488 8.1548 -50.5873 -12.1555 2.15501 -18.2728 -89.8079 -49.2673 78.8592 -23.7776 10.4998 -27.5851 -21.2487 -27.7035 -54.3118 1.77353 -0.191008 -7.38138 -1.45862 1.01941 -14.4326 -3.73275 2.75732 5.78318 
82.6268 96.1306 -52.9321 103.016 47.6576 83.914 -173.229 -15.5251 92.7427 -21.3565 17.5782 -1.91231 89.234 11.5611 -3.45134 5.79354 -2.33021 5.52835 176.585 17.3029 97.3775 -7.8371 -7.17939 0.579389 65.5717 -3.25992 -1.04829 25.8294 -0.362772 1.4649 -0.664699 8.27357 -90.3276 10.3237 -1.47411 -0.523073 -1.34652 -1.49571 -0.457682 -23.886 -1.24875 -0.941966 -3.87337 -1.24876 -0.941974 88.4415 -31.8866 -109.051 22.3931 -3.24764 -19.1148 12.3274 8.2766 -50.8376 -14.5556 2.08181 -15.7532 -89.9557 -49.4979 78.6863 -24.0473 10.2772 -27.9063 -21.0021 -27.6684 -54.1527 2.36007 -0.173373 -6.36307 -1.4007 1.08445 -14.0747 -3.68657 2.78545 5.79413 
86.2594 95.0804 -57.6334 102.508 49.6496 83.7576 -172.846 -19.2435 92.924 -20.241 21.0392 -1.53395 87.6922 12.1656 0.269155 11.8074 -0.876447 3.48231 176.331 17.4599 97.2196 -9.89476 -8.20972 0.886682 62.6348 -2.27541 -1.05558 23.5282 -0.581233 2.34213 -0.903871 8.18872 -90.3181 10.4933 -1.94617 -0.459247 -1.1762 -1.96451 -0.373119 -23.7203 -1.71818 -1.02307 -3.70766 -1.71816 -1.02307 89.0781 -31.8891 -107.83 22.6562 -3.45894 -19.6924 11.789 7.7499 -51.0006 -11.5105 2.22025 -19.6048 -89.949 -49.1815 78.628 -24.6652 10.3273 -27.8503 -20.9585 -27.5893 -54.1723 1.90387 -0.150577 -5.9785 -0.247009 0.99436 -13.2573 -4.47563 2.69341 5.35098 
90.0512 94.7309 -62.1367 102.128 51.484 83.5892 -172.941 -22.2362 93.1752 -19.5017 20.2524 -0.109505 83.3101 10.064 -1.09743 21.9676 3.30415 -3.21386 176.153 23.1261 97.2685 -23.9045 -10.746 0.246906 61.5228 -0.346886 -2.44202 20.4169 -0.804296 3.27437 -1.07316 8.08042 -90.3327 10.7098 -2.29044 -0.451427 -0.959128 -2.30808 -0.350145 -23.5073 -2.04882 -1.11919 -3.49462 -2.04884 -1.11919 89.0995 -32.1348 -107.694 23.2216 -2.93792 -19.0276 10.5594 5.3934 -51.2122 -11.7973 2.07094 -19.2161 -90.1016 -49.9212 78.5586 -24.3187 10.7476 -27.5454 -22.2746 -28.6024 -54.8453 -0.566881 -0.0977031 -4.64348 0.315553 0.838816 -11.9722 -4.86321 2.42738 4.29865 
93.6663 94.5406 -66.8407 101.812 52.1121 83.1028 -173.39 -20.2751 92.2793 -27.2619 21.4504 0.977237 73.2752 6.17955 0.501024 39.3839 5.02741 -11.0267 175.771 24.5139 96.59 -32.4747 -11.1597 0.0857818 62.5959 -0.905 -1.93129 15.77 -0.53792 3.40442 -1.01337 7.97422 -90.3466 10.922 -2.17785 -0.483922 -0.747212 -2.19704 -0.387569 -23.2937 -1.93171 -1.11629 -3.28103 -1.9317 -1.1163 89.6273 -31.3699 -106.969 24.7625 -2.51086 -17.7481 8.94595 3.33947 -50.9732 -10.9 1.92273 -20.4016 -90.2427 -50.712 78.5209 -24.2181 11.7041 -27.3741 -20.225 -27.7576 -53.1114 1.59125 -0.160685 -6.45901 0.393055 0.382526 -9.90708 -4.6906 1.72219 3.18882 
97.0014 94.5124 -71.0912 101.969 51.7185 82.8462 -171.982 -13.8846 93.3867 -41.358 27.0878 1.64861 63.708 2.11402 0.770123 25.441 3.4638 -4.63072 175.446 23.6276 96.493 -38.3948 -11.6223 0.0516225 67.9039 -3.66458 -2.27947 14.8248 -0.353887 3.20637 -0.77456 7.90593 -90.3982 11.0577 -1.72661 -0.626143 -0.612192 -1.75251 -0.549529 -23.1532 -1.45861 -1.11619 -3.14052 -1.4586 -1.11618 90.1458 -30.5027 -106.281 25.7619 -3.73224 -16.72 19.1914 12.7396 -54.158 -7.97593 0.354983 -15.6594 -90.7963 -50.861 77.7336 -24.6023 11.8512 -26.3392 -19.7543 -27.1468 -53.2432 2.52549 -0.176848 -6.40685 -0.599044 -0.0123914 -7.72136 -4.29855 0.979982 2.28121 
100.051 94.5058 -74.4978 102.307 51.9 83.1673 -170.197 -4.66302 95.7971 -55.0847 29.1873 2.7626 55.488 -1.30572 -0.835139 18.5773 -0.197618 1.87307 174.557 21.4211 96.8972 -41.1287 -11.734 0.589055 72.1564 -5.70479 -2.30125 15.5197 -0.52566 3.41633 -0.550679 7.88222 -90.4879 11.1042 -1.3225 -0.842755 -0.566313 -1.35833 -0.783724 -23.1027 -1.00811 -1.20125 -3.0901 -1.00812 -1.20126 90.761 -30.2997 -105.14 25.9638 -1.89734 -16.9516 -149.561 -21.3996 -150.732 -26.8517 8.58034 -71.3834 -91.0249 -50.8703 77.3982 -24.0001 12.681 -26.5866 -19.7528 -27.7532 -52.4247 2.3892 -0.145401 -5.68972 -1.83154 -0.514212 -5.79784 -3.76648 0.19537 0.777515 
102.982 95.1313 -78.0371 103.461 52.7747 81.761 -170.882 3.66911 95.4888 -65.0059 21.9763 3.54039 64.2812 2.52882 0.4698 13.2344 -0.287042 2.67226 174.092 17.1906 96.2094 -40.7419 -11.8662 0.523057 75.4582 -7.30778 -2.85229 16.4043 -0.49759 3.24817 -0.593973 8.00397 -90.4197 10.8619 -1.37652 -0.705655 -0.808478 -1.40625 -0.6444 -23.3462 -1.10081 -1.08675 -3.33353 -1.10082 -1.08675 88.9018 -30.5247 -108.715 24.7177 -2.25208 -16.8595 16.2662 5.89111 -52.18 -13.074 1.66299 -23.0089 -90.5913 -50.8085 78.0257 -24.1747 10.8244 -25.7978 -20.0397 -26.7014 -54.0111 3.89353 -0.198441 -6.30875 -3.14913 -0.146428 -6.02586 -2.59024 0.519408 1.89306 
